<svg xmlns="http://www.w3.org/2000/svg" width="800px" height="800px" viewBox="0 0 32 32" version="1.1">
<title>database</title>
<defs>
    <linearGradient id="gradient" x1="0%" y1="0%" x2="100%" y2="100%" gradientUnits="userSpaceOnUse">
      <stop offset="0%" stop-color="#2b50e6"/>
      <stop offset="100%" stop-color="#8a2be2"/>
    </linearGradient>
  </defs>
<path d="M4 26.016q0 1.632 1.6 3.008t4.384 2.176 6.016 0.8 6.016-0.8 4.384-2.176 1.6-3.008v-3.392q0 1.632-1.632 2.88t-4.32 1.856-6.048 0.64-6.048-0.64-4.32-1.856-1.632-2.88v3.392zM4 20q0 1.632 1.6 3.008t4.384 2.208 6.016 0.8 6.016-0.8 4.384-2.208 1.6-3.008v-3.36q0 1.6-1.632 2.848t-4.32 1.888-6.048 0.64-6.048-0.64-4.32-1.888-1.632-2.848v3.36zM4 14.016q0 1.632 1.6 3.008t4.384 2.176 6.016 0.8 6.016-0.8 4.384-2.176 1.6-3.008v-3.392q0 1.632-1.632 2.88t-4.32 1.856-6.048 0.64-6.048-0.64-4.32-1.856-1.632-2.88v3.392zM4 8q0 1.632 1.6 3.008t4.384 2.208 6.016 0.8 6.016-0.8 4.384-2.208 1.6-3.008v-1.984q0-1.632-1.6-3.008t-4.384-2.176-6.016-0.832-6.016 0.832-4.384 2.176-1.6 3.008v1.984z" fill="url(#gradient)"/>
</svg>